# xmcd CD database file
# Copyright (C) 1993-1998 Ti Kan
#
# Track frame offsets:
#	150
#	14775
#	29700
#	44700
#	56175
#	71250
#
# Disc length: 1188 seconds
#
# Revision: 1
# Processed by: cddbd v1.4b41PL1 Copyright (c) Steve Scherf et al.
# Submitted via: NotifyCDPlayer(CDDB) 1.50
#
DISCID=5b04a206
DTITLE=Lyle Lovett - She's No Lady
DYEAR=1900
DGENRE=
TTITLE0=She's No Lady
TTITLE1=M-O-N-E-Y
TTITLE2=L.A. County
TTITLE3=She's Hot to Go
TTITLE4=Simple Song
TTITLE5=Black and Blue
EXTD=Promo CD for "Pontiac"
EXTT0=
EXTT1=
EXTT2=
EXTT3=
EXTT4=
EXTT5=
PLAYORDER=
